<svg xmlns="http://www.w3.org/2000/svg" viewBox="0 0 64 64" role="img" aria-labelledby="title desc">
	<title id="title">Dynamiques orbitales</title>
	<desc id="desc">Planete stylisee avec orbites et satellite.</desc>
	<defs>
		<linearGradient id="planet" x1="20" x2="44" y1="19" y2="45" gradientUnits="userSpaceOnUse">
			<stop offset="0" stop-color="#7dd3fc"/>
			<stop offset="0.48" stop-color="#2563eb"/>
			<stop offset="1" stop-color="#0f766e"/>
		</linearGradient>
		<linearGradient id="satellite" x1="44" x2="58" y1="11" y2="23" gradientUnits="userSpaceOnUse">
			<stop offset="0" stop-color="#e2e8f0"/>
			<stop offset="1" stop-color="#7dd3fc"/>
		</linearGradient>
	</defs>
	<g fill="#e2e8f0">
		<circle cx="13" cy="16" r="1.1" opacity="0.8"/>
		<circle cx="51" cy="38" r="0.9" opacity="0.65"/>
		<circle cx="18" cy="49" r="0.8" opacity="0.55"/>
		<circle cx="45" cy="9" r="0.75" opacity="0.5"/>
	</g>
	<g fill="none" stroke="#7dd3fc" stroke-linecap="round">
		<ellipse cx="32" cy="32" rx="25" ry="9" stroke-width="1.8" opacity="0.62" transform="rotate(-18 32 32)"/>
		<ellipse cx="32" cy="32" rx="27" ry="11" stroke-width="1.1" opacity="0.28" transform="rotate(28 32 32)"/>
	</g>
	<circle cx="32" cy="32" r="12" fill="url(#planet)"/>
	<path fill="#38bdf8" d="M24.2 29.8c3.5-1.9 7.5-2 11.5-.4 2 .8 3.8.7 5.4-.3.7 2.1.8 4.5.2 6.8-4.7-.1-8.8-1.3-12.1-3.8-1.5-1.1-3.2-1.8-5-2.3Z" opacity="0.42"/>
	<path fill="#0f172a" d="M22.2 37.2c4.4.4 7.8 1.7 10.4 3.9-4.1.2-7.9-1.3-10.4-3.9Z" opacity="0.38"/>
	<g transform="rotate(-18 51 17)">
		<rect x="45" y="14" width="12" height="8" rx="2" fill="url(#satellite)"/>
		<path d="M42 18h3m12 0h3" stroke="#7dd3fc" stroke-linecap="round" stroke-width="1.7"/>
		<rect x="39" y="15.4" width="4" height="5.2" rx="0.8" fill="#2563eb"/>
		<rect x="59" y="15.4" width="4" height="5.2" rx="0.8" fill="#2563eb"/>
	</g>
</svg>
