<svg xmlns="http://www.w3.org/2000/svg" viewBox="3 6 58 52" role="img" aria-labelledby="title desc">
	<title id="title">Dynamiques orbitales</title>
	<desc id="desc">Planete stylisee avec orbites et satellite.</desc>
	<defs>
		<linearGradient id="planet" x1="17" x2="47" y1="17" y2="47" gradientUnits="userSpaceOnUse">
			<stop offset="0" stop-color="#7dd3fc"/>
			<stop offset="0.48" stop-color="#2563eb"/>
			<stop offset="1" stop-color="#0f766e"/>
		</linearGradient>
		<linearGradient id="satellite" x1="40" x2="56" y1="12" y2="24" gradientUnits="userSpaceOnUse">
			<stop offset="0" stop-color="#e2e8f0"/>
			<stop offset="1" stop-color="#7dd3fc"/>
		</linearGradient>
	</defs>
	<g fill="#e2e8f0">
		<circle cx="11" cy="16" r="1.6" opacity="0.9"/>
		<circle cx="52" cy="40" r="1.3" opacity="0.8"/>
		<circle cx="18" cy="51" r="1.2" opacity="0.72"/>
		<circle cx="45" cy="9" r="1" opacity="0.65"/>
	</g>
	<g fill="none" stroke="#7dd3fc" stroke-linecap="round">
		<ellipse cx="31.5" cy="33" rx="28" ry="10.5" stroke-width="2.9" opacity="0.82" transform="rotate(-18 31.5 33)"/>
		<ellipse cx="31.5" cy="33" rx="30" ry="12.5" stroke-width="2.1" opacity="0.55" transform="rotate(28 31.5 33)"/>
	</g>
	<circle cx="31.5" cy="33" r="17" fill="url(#planet)"/>
	<path fill="#38bdf8" d="M20.5 30c4.9-2.6 10.5-2.8 16.1-.6 2.8 1.1 5.3 1 7.5-.4 1 3 1.1 6.3.3 9.5-6.6-.1-12.3-1.8-16.9-5.3-2.1-1.5-4.5-2.6-7-3.2Z" opacity="0.5"/>
	<path fill="#0f172a" d="M17.5 40.5c6.2.5 11 2.4 14.6 5.5-5.8.3-11.1-1.9-14.6-5.5Z" opacity="0.42"/>
	<g transform="rotate(-18 48 18)">
		<rect x="42" y="14" width="11" height="8.5" rx="2" fill="url(#satellite)"/>
		<path d="M39 18.3h3m11 0h3" stroke="#7dd3fc" stroke-linecap="round" stroke-width="2"/>
		<rect x="35.5" y="15.5" width="4.7" height="5.8" rx="1" fill="#2563eb"/>
		<rect x="55" y="15.5" width="4.7" height="5.8" rx="1" fill="#2563eb"/>
	</g>
</svg>
